<?xml version="1.0" standalone="no"?><svg xmlns="http://www.w3.org/2000/svg" viewBox="0 0 1440 320"><path fill="#495f80" fill-opacity="1" d="M0,192L17.1,202.7C34.3,213,69,235,103,240C137.1,245,171,235,206,224C240,213,274,203,309,192C342.9,181,377,171,411,170.7C445.7,171,480,181,514,208C548.6,235,583,277,617,293.3C651.4,309,686,299,720,277.3C754.3,256,789,224,823,186.7C857.1,149,891,107,926,101.3C960,96,994,128,1029,160C1062.9,192,1097,224,1131,229.3C1165.7,235,1200,213,1234,213.3C1268.6,213,1303,235,1337,245.3C1371.4,256,1406,256,1423,256L1440,256L1440,0L1422.9,0C1405.7,0,1371,0,1337,0C1302.9,0,1269,0,1234,0C1200,0,1166,0,1131,0C1097.1,0,1063,0,1029,0C994.3,0,960,0,926,0C891.4,0,857,0,823,0C788.6,0,754,0,720,0C685.7,0,651,0,617,0C582.9,0,549,0,514,0C480,0,446,0,411,0C377.1,0,343,0,309,0C274.3,0,240,0,206,0C171.4,0,137,0,103,0C68.6,0,34,0,17,0L0,0Z"></path></svg>